<svg width="711" height="661" viewBox="0 0 711 661" fill="none" xmlns="http://www.w3.org/2000/svg">
<rect width="711" height="661" fill="#E5E5E5"/>
<g clip-path="url(#clip0)">
<rect width="711" height="661" fill="white"/>
<path d="M38.2362 557.081L38.9824 565.315L34.1856 564.057L32.0536 566.001L25.871 565.315L24.0589 563.943L29.2821 564.515L32.6932 559.483L38.2362 557.081ZM111.788 633.131L107.098 631.072L105.072 631.987L105.286 634.388L103.26 634.732L100.915 640.335L101.661 643.08L103.473 646.396L107.098 647.769L110.722 647.197L116.372 641.479L115.945 638.62L111.788 633.131ZM117.544 600.995L110.402 598.479L107.844 593.676L96.0116 590.817L93.1335 584.299L92.3874 575.493L85.7784 570.118L79.4892 576.408L78.6364 579.724L79.9155 584.871L83.22 586.243L82.1541 590.131L79.3826 591.503L76.7176 597.336L74.6923 597.107L73.6263 599.28L69.0427 598.479L70.9614 597.679L67.2305 593.448L56.1445 588.759L52.5202 590.589L49.9619 596.078L49.4289 600.08L52.7334 611.173L53.373 624.897L60.0886 635.189L60.7281 638.277C63.926 636.904 67.1239 635.418 70.4284 634.045L76.7176 626.155L76.2913 616.205L73.3065 610.144L73.5197 603.854L77.3572 604.083L78.3166 602.139L79.809 605.684L87.0575 607.971L101.768 602.368L117.544 600.995Z" fill="black"/>
<path d="M47.1477 495.75L48.6401 491.061L42.0311 482.484L42.3509 475.851L47.4675 471.277L52.6908 470.248L70.8122 481.569L78.274 491.633L88.2941 485.686L90.2128 488.202L87.2281 489.117L87.9743 492.09L84.883 493.234L82.5378 490.489L80.5125 492.434L81.1521 495.293L86.5885 497.122L80.9389 502.726L82.6444 505.356L87.4413 503.641L86.5885 510.045L90.5326 510.274L98.6339 532.002L96.7152 538.292L92.3447 544.124H89.5732L87.4413 540.693L91.3854 534.175L86.8017 536.119L84.1368 533.26L81.5785 534.632L75.1827 531.43L69.3198 531.545L63.5636 535.547L61.0053 533.146L61.2185 530.058L59.0866 527.771L61.7515 522.167L65.3758 519.308L70.599 523.196L74.0101 521.024L69.3198 515.649L69.533 512.904L67.6143 514.276L59.9393 513.018L51.838 505.013L47.1477 495.75Z" fill="black"/>
<path d="M101.48 399.082L89.0082 417.837L89.328 420.581L81.5465 437.621L76.8562 442.081L74.0847 443.568L71.633 441.623L66.9427 442.538L67.6889 440.48L56.3897 440.137L51.806 441.052L47.4355 445.74L37.7352 440.709L44.7706 427.214L45.0904 420.353L49.5675 408.002L40.7199 397.023L37.8418 387.874L37.2023 374.837L41.2529 366.26L47.5421 360.085L48.6081 355.511L53.0852 356.082L50.6334 353.795L76.9628 363.63L86.7697 373.694L90.0742 374.037L89.328 375.409L95.8304 379.984L97.3228 384.672L94.7645 388.217L97.536 386.388L97.6426 380.098L101.906 384.1L104.465 392.106L101.48 399.082Z" fill="black"/>
<path d="M44.0564 303.397L36.9144 293.676L38.3002 286.815L42.6707 284.07L43.4168 275.035L46.9345 275.493L55.0359 268.517L61.1119 267.602L83.4972 272.176L88.827 278.238V282.926L96.6086 294.477L103.751 299.623L104.817 303.74L101.299 312.774L102.258 323.753L98.6339 327.755L80.1927 331.072L59.2998 323.638L55.2491 319.521L50.239 318.149L49.2797 315.29L45.4422 312.66L44.0564 303.397Z" fill="black"/>
<path d="M61.6022 179.694L73.669 186.349L70.2152 194.881L64.1819 203.48L70.2152 213.052L65.9087 219.571L59.8754 228.731L65.9087 233.729L58.1485 238.726L49.5248 235.604L45.2183 229.84V224.294L41.7646 216.803L49.5248 221.241L53.8313 222.533V214.368L48.6614 204.727V187.802L40.0377 184.817L36.584 181.764V175.176L46.0711 167.411L53.8313 179.065L61.6022 179.694ZM83.22 187.985L77.2933 191.896L82.4206 198.289L86.6098 192.811L83.22 187.985Z" fill="black"/>
<path d="M422.976 176.915L419.565 176.343L416.9 178.287L420.098 182.29L425.747 182.175L423.829 180.002L422.976 176.915Z" fill="black"/>
<path d="M470.198 201.388L467.107 202.303L467.533 212.023L451.117 215.454L450.904 222.087L446.747 228.262L434.808 231.35L425.001 230.549L427.773 228.834L428.412 225.746L423.935 220.829L423.189 217.284L426.813 211.794L431.077 192.125L430.544 190.981L431.717 186.292L431.397 182.976V182.861L430.011 177.487L431.397 174.628L429.585 168.795L429.691 168.681L431.503 166.051L431.29 163.763L438.645 164.907L440.777 162.391L443.442 164.221L452.077 160.904L454.848 161.705L456.767 164.564L456.021 167.766L460.178 172.569L470.091 179.431L469.665 181.718L466.894 184.234L470.624 193.726L473.396 195.67L470.198 201.388Z" fill="black"/>
<path d="M388.119 180.803L384.281 173.255L382.362 166.622L384.814 163.649L388.865 163.763L398.991 164.678L408.585 168.795L414.448 175.771L412.316 179.316L415.727 185.263L408.159 191.438L406.453 194.412L407.199 197.728L402.296 207.563L398.991 208.364L396.54 205.848L395.261 199.444L388.652 193.268L388.119 180.803Z" fill="black"/>
<path d="M428.092 188.465L430.544 190.981L431.077 192.125L426.813 211.794L423.189 217.284L419.245 216.598L416.26 218.656L414.661 215.568L412.636 218.885L405.281 219.685L402.296 207.563L407.199 197.728L406.453 194.412L408.159 191.438L415.727 185.263V185.149L419.671 186.978L425.108 189.38L428.092 188.465Z" fill="black"/>
<path d="M416.9 178.287L420.098 182.29L419.671 186.978L415.727 185.149V185.263L412.316 179.316L414.448 175.771L418.285 172.798L419.671 175.085L419.565 176.343L416.9 178.287Z" fill="black"/>
<path d="M431.397 174.628L430.011 177.487L431.397 182.861V182.976L423.829 180.002L422.976 176.915L419.565 176.343L419.671 175.085L418.285 172.798L421.803 171.311L424.575 172.569C426.28 171.311 427.986 170.053 429.585 168.795L431.397 174.628Z" fill="black"/>
<path d="M431.397 182.976L431.717 186.292L430.544 190.981L428.092 188.465L425.108 189.38L419.671 186.978L420.098 182.29L425.747 182.175L423.829 180.002L431.397 182.976Z" fill="black"/>
<path d="M398.991 164.678L388.865 163.763L393.129 152.899L394.834 156.559L400.804 157.817L407.519 155.758L417.326 158.274L419.671 156.444L431.29 163.763L431.503 166.051L429.691 168.681L429.585 168.795C427.986 170.053 426.28 171.311 424.575 172.569L421.803 171.311L418.285 172.798L414.448 175.771L408.585 168.795L398.991 164.678Z" fill="black"/>
<path d="M410.717 269.203L416.047 266.458L430.438 270.004L434.595 275.493L444.189 273.549L446.32 280.982L444.508 287.615L447.386 290.017L450.691 298.708L451.011 305.455L453.356 307.742L453.143 314.375L451.757 324.553H451.65H447.386L442.27 328.785L433.316 332.101L430.864 334.274L432.676 340.335L430.864 343.08L421.59 344.223L417.859 350.97V351.085L412.636 350.856L414.235 346.853L413.275 336.675L408.265 327.641L409.758 324.553L407.306 322.037L409.971 316.205L407.519 302.825L395.154 300.995L398.139 294.705L401.123 294.82L401.763 291.618L412.103 289.33L409.864 282.583L416.154 277.894L410.717 269.203Z" fill="black"/>
<path d="M355.074 229.749L352.835 225.403L351.663 216.826L359.657 210.994L359.124 205.733L359.338 200.587L354.221 195.555L354.114 191.896L356.673 188.922L363.068 187.665L368.718 184.005L371.703 185.835L378.099 184.348L377.885 181.146L384.281 173.255L388.119 180.803L388.652 193.268L395.261 199.444L396.54 205.848L398.991 208.364L402.296 207.563L405.281 219.685L404.748 221.401L399.631 233.752L390.57 234.438L384.175 237.64L384.388 240.842L380.87 238.669L375.007 242.672L361.363 230.321L354.647 231.807L355.074 229.749Z" fill="black"/>
<path d="M381.403 352.8L378.418 356.117L376.606 353.258L370.424 354.516L367.652 353.258L369.251 350.056L366.586 348.569L363.815 342.393H360.723L355.82 337.362L356.673 330.729L354.434 327.298L360.404 326.726L359.338 323.638L362.855 310.03L368.292 306.942L370.743 308.886L373.515 304.883L376.18 302.482L375.114 296.878L381.51 293.219L384.175 294.705L385.773 291.732L392.596 290.703L398.139 294.705L395.154 300.995L407.519 302.825L409.971 316.205L407.306 322.037L409.758 324.553L408.265 327.641L413.275 336.675L414.235 346.853L412.636 350.856L409.758 351.771L395.687 348.683L393.662 351.542L381.403 352.8Z" fill="black"/>
<path d="M323.947 300.766L318.085 297.107V296.993L324.267 279.496L326.079 268.86L326.826 266.115L333.328 269.089L332.795 265.315L335.78 265.658L343.988 260.512L355.18 261.084L354.967 267.373L357.312 265.315L363.708 269.203L362.962 272.291L366.586 278.123L365.307 288.53L367.865 290.703L370.637 289.216L375.114 296.878L376.18 302.482L373.515 304.883L370.743 308.886L368.292 306.942L362.855 310.03L359.338 323.638L360.403 326.726L354.434 327.298L346.866 315.862L346.546 312.317L340.896 308.886L342.389 312.202L331.729 312.66L328.744 311.059L327.359 304.083L324.267 304.426L323.947 300.766Z" fill="black"/>
<path d="M381.51 293.219L375.114 296.878L370.637 289.216L367.865 290.703L365.307 288.53L366.586 278.123L362.962 272.291L363.708 269.203L357.312 265.315L354.967 267.373L355.18 261.084L343.988 260.512L344.627 256.509L348.038 255.251L354.754 243.129L354.327 236.839L352.515 234.323L354.647 231.922V231.807L361.363 230.321L375.007 242.672L380.87 238.669L384.388 240.842L387.053 248.961L385.134 252.621L386.946 259.025L390.144 257.538L392.702 259.254L393.875 263.599L396.966 264.286L398.991 261.655L415.194 263.485L416.047 266.458L410.717 269.203L416.154 277.894L409.864 282.583L412.103 289.33L401.763 291.618L401.123 294.82L398.139 294.705L392.596 290.703L385.773 291.732L384.175 294.705L381.51 293.219Z" fill="black"/>
<path d="M419.245 216.598L423.189 217.284L423.935 220.829L428.412 225.746L427.773 228.834L425.001 230.55L434.808 231.35L446.747 228.262L453.889 236.839L454.315 243.472L449.412 249.076L450.584 252.392L448.879 255.137L443.229 258.911L446.427 262.113L448.772 270.004L445.787 270.804L444.189 273.549L434.595 275.493L430.438 270.004L416.047 266.458L415.194 263.485L398.991 261.655L396.966 264.286L393.875 263.599L392.702 259.254L390.144 257.538L386.946 259.025L385.134 252.621L387.053 248.961L384.388 240.842L384.175 237.64L390.57 234.438L399.631 233.752L404.748 221.401L405.281 219.685L412.636 218.885L414.661 215.568L416.26 218.656L419.245 216.598Z" fill="black"/>
<path d="M558.14 276.408L562.298 285.785L561.018 287.272L559.1 296.65L552.491 304.426L551.318 309.115V309L535.329 310.716L525.948 315.519L519.979 308.314L514.116 306.141L512.73 303.168L506.654 301.224L504.096 298.251V297.336L504.522 293.676L500.578 292.304L499.192 285.442H499.299L497.913 282.355L499.299 273.091L506.441 261.198L504.629 258.568L507.614 256.166L507.933 251.935L504.629 247.475L506.654 243.93L508.999 241.642L515.502 240.613L520.512 236.153L524.669 236.725L528.4 237.525L528.933 240.613L531.704 241.757L531.385 245.073L534.476 245.416L536.395 247.932L537.461 251.477L534.476 254.222L536.928 259.711L546.735 261.998L549.932 263.828V267.03L555.049 264.857H555.156L558.034 263.028L560.166 266.459L560.272 270.118L555.369 274.807L558.14 276.408Z" fill="black"/>
<path d="M629.027 280.41L626.469 282.926L626.895 286.357L621.779 293.447L616.662 298.022L616.236 301.338L613.571 304.426L607.495 306.37L607.175 306.713L605.363 309.343L606.322 312.431L605.576 317.577L606.109 320.436L595.982 330.5L592.891 336.447L592.656 337.236L588.734 333.245L592.571 324.782L594.81 322.152L590.333 317.463L587.241 316.891L581.059 305.341L577.861 306.256L576.262 303.397L574.13 305.798L572.851 302.939L576.049 297.107L570.506 288.187L594.277 276.522L597.475 271.147L603.444 268.974L606.429 270.004L608.347 267.488L611.759 267.03L612.292 263.828L618.581 264.743L618.794 264.629H618.9L625.19 267.716L623.697 270.575L625.19 273.32L625.627 272.794L625.509 272.977L623.164 278.581L630.626 277.78L629.027 280.41Z" fill="black"/>
<path d="M588.734 333.245L592.656 337.236L589.906 346.51L584.256 354.744L578.394 358.404L574.343 358.633L573.917 355.43L570.292 353.601L566.028 358.633L562.937 358.747L562.831 355.316H559.739L555.156 346.51L558.14 345.252L557.288 339.191L560.272 333.473L557.927 323.524L555.262 321.694L560.592 317.463L551.745 312.431L551.318 309.115L552.491 304.426L559.1 296.649L561.018 287.272L562.298 285.785L564.749 288.072L570.506 288.187L576.049 297.107L572.851 302.939L574.13 305.798L576.262 303.397L577.861 306.256L581.059 305.341L587.241 316.891L590.333 317.463L594.81 322.152L592.571 324.782L588.734 333.245Z" fill="black"/>
<path d="M493.33 285.9L499.192 285.442L500.578 292.304L504.522 293.676L504.096 297.336V298.251L502.923 298.594L500.045 299.051V300.538L497.06 301.681L497.38 308.429L495.142 310.373L499.406 318.378L497.38 320.779L498.126 324.096L486.081 330.614L478.619 327.412L472.33 334.274L467.64 330.043L464.655 331.987L457.833 331.758L451.757 324.553L453.143 314.375L453.356 307.742L451.011 305.455L450.691 298.708L447.386 290.017L444.508 287.615L446.32 280.982L444.188 273.549L445.787 270.804L448.772 270.004V270.118H452.396L460.285 275.607H466.68L471.584 270.69L475.741 277.094L481.604 280.525L487.787 279.496L488.746 283.727L491.731 282.698L493.33 285.9Z" fill="black"/>
<path d="M617.301 258.339L618.794 264.629L618.581 264.743L612.291 263.828L611.758 267.03L608.347 267.488L606.429 270.004L603.444 268.974L597.474 271.147L594.277 276.522L570.506 288.187L564.749 288.072L562.298 285.785L558.14 276.408L555.369 274.807L560.272 270.118L560.166 266.458L558.034 263.028L555.156 264.857H555.049L556.328 261.998L563.364 257.538L565.602 259.597L569.013 258.453L569.333 248.961L571.465 246.217L574.556 246.56L577.008 242.9L576.795 241.299L585.322 234.666L592.784 239.584L598.967 237.754L604.19 241.871L609.627 239.355L618.581 246.903L616.129 253.421L617.301 258.339Z" fill="black"/>
<path d="M551.318 309V309.115L551.744 312.431L560.592 317.463L555.262 321.694L557.927 323.524L560.272 333.473L557.288 339.191L558.14 345.252L555.156 346.51L550.039 342.737L544.283 344.223L537.994 342.508L531.704 366.409L525.628 357.603L523.923 360.234L521.258 358.518L518.913 360.348L516.568 358.404L514.116 360.577L513.807 363.905L513.796 363.893V364.007L507.72 368.353L505.482 365.952L496.954 367.667L491.411 363.893V360.462L495.355 355.202L495.888 348.912L494.182 346.167L485.761 342.851L478.619 327.412L486.081 330.614L498.126 324.096L497.38 320.779L499.406 318.378L495.142 310.373L497.38 308.429L497.06 301.681L500.045 300.538L502.923 298.594L504.096 298.251L506.654 301.224L512.73 303.168L514.116 306.141L519.979 308.314L525.948 315.519L535.329 310.716L551.318 309Z" fill="black"/>
<path d="M453.889 236.839L446.747 228.262L450.904 222.087L451.117 215.454L467.533 212.023L471.371 213.739L476.167 220.028L478.832 229.52L480.964 227.004L484.802 231.693L490.132 244.158L503.563 242.329L506.654 243.93L504.629 247.475L507.933 251.935L507.613 256.166L504.629 258.568L506.441 261.198L499.299 273.091L497.913 282.355L499.299 285.442H499.192L493.33 285.9L491.731 282.698L488.746 283.727L487.786 279.496L481.604 280.525L475.741 277.094L471.584 270.69L466.68 275.607H460.285L452.396 270.118H448.772V270.004L446.427 262.113L443.229 258.911L448.879 255.137L450.584 252.392L449.412 249.076L454.315 243.472L453.889 236.839Z" fill="black"/>
<path d="M618.581 246.903L619.54 246.217L627.641 251.935L628.174 262.227L631.159 261.998L633.291 267.716L633.184 267.831L630.21 268.277L629.027 267.831L625.627 272.794L625.19 273.32L623.697 270.575L625.19 267.716L618.9 264.629H618.794L617.301 258.339L616.129 253.421L618.581 246.903Z" fill="black"/>
<path d="M337.805 169.253L337.059 171.769L331.089 170.625L323.628 172.569L315.953 178.744L312.861 179.088L306.785 177.83L304.014 179.774L298.791 176.343L291.968 178.973L289.09 177.486L288.131 180.574L282.375 183.891L272.035 181.489L270.116 178.744L274.913 172.683L273.207 170.053L281.842 164.449L279.497 155.072L281.628 152.099L272.674 148.553L272.141 141.006V140.891L272.248 140.091L274.167 141.006L276.192 138.604L279.816 138.261L289.836 142.035L304.653 143.75L312.009 147.639L318.085 146.838L323.095 143.979L327.465 139.748L332.901 138.49L333.221 147.982H336.313L333.861 150.383L336.846 161.133L335.353 164.564L337.805 169.253Z" fill="black"/>
<path d="M337.272 175.428L337.059 171.769L337.805 169.253L335.353 164.564L336.846 161.133L333.861 150.383L336.313 147.982H333.221L332.901 138.49L334.714 138.032L335.012 137.918H336.632L335.673 137.689L336.526 137.346L335.151 137.003L341.429 134.258L349.531 139.976L353.155 139.176L358.378 142.607L356.353 145.351L358.591 147.753L364.348 150.498L365.84 147.41L374.581 144.551L379.697 136.546L393.662 140.32L397.392 149.926L393.129 152.899L388.865 163.763L384.814 163.649L382.362 166.622L384.281 173.255L377.885 181.146L378.099 184.348L371.703 185.835L368.718 184.005L363.068 187.665L356.673 188.922L354.114 191.896L350.49 189.494L352.302 186.864L343.988 176L337.272 175.428Z" fill="black"/>
<path d="M272.035 181.489L282.375 183.891L286.745 188.694L284.826 196.356L280.989 201.502H280.882L271.715 200.587L265.959 197.957L258.39 203.446L255.512 202.303L250.502 191.324L252.528 191.095L257.644 191.553L260.309 190.295L260.842 187.779L258.284 189.266L252.847 182.861L252.528 176.8L254.66 169.824L254.34 164.221L252.421 160.104L252.847 151.641L254.446 149.354L251.781 149.697L249.649 143.979L249.969 141.463L247.411 140.091L244.32 135.402L243.573 128.655L242.081 126.482L244 124.424L244.106 121.221L243.573 118.591L241.228 117.333L240.162 114.474L242.401 114.246L255.086 119.049H257.644L261.908 116.075L267.345 116.761L269.263 118.706L270.223 121.793L266.812 127.74L271.075 135.173L272.248 140.091L272.141 140.891V141.006L272.674 148.553L281.629 152.099L279.497 155.072L281.842 164.449L273.207 170.053L274.913 172.683L270.116 178.744L272.035 181.489Z" fill="black"/>
<path d="M284.507 205.733L280.989 201.502L284.826 196.356L286.745 188.694L282.375 183.891L288.131 180.574L289.09 177.487L291.968 178.973L298.791 176.343L304.014 179.774L306.785 177.83L312.861 179.088L315.953 178.744L323.628 172.569L331.089 170.625L337.059 171.769L337.272 175.428L343.988 176L352.302 186.864L350.49 189.494L354.114 191.896L354.221 195.555L359.338 200.587L359.124 205.733L359.657 210.994L351.663 216.826L352.835 225.403L349.424 224.603L346.12 220.6L343.028 221.744L335.353 216.026L333.648 206.42L330.663 204.704L318.937 211.451L315.739 211.337V211.223V207.906L312.222 206.076L310.196 199.215L307.318 198.986L306.572 202.074H296.872L289.73 205.848L287.065 203.904L284.507 205.733Z" fill="black"/>
<path d="M335.151 137.003L327.039 134.945L325.76 132.657L325.653 130.027L330.343 118.934L345.054 110.472L347.505 108.642L358.485 106.24L363.601 104.182L366.16 104.525L375.22 99.4931L380.668 94.8158L393.235 106.24L396.86 115.847L393.555 121.221L395.047 131.171L393.662 140.32L379.698 136.546L374.581 144.551L365.84 147.41L364.348 150.498L358.591 147.753L356.353 145.351L358.378 142.607L353.155 139.176L349.531 139.976L341.429 134.258L335.151 137.003Z" fill="black"/>
<path d="M480.005 94.4612L497.807 99.7218L500.909 100.797L501.644 107.498L500.258 111.501L501.644 115.046L496.314 123.28L493.436 123.623L493.756 139.976L492.69 143.179L487.04 141.12L478.513 145.694L477.233 148.668L480.645 157.817L474.782 160.447L476.487 163.192L475.634 166.279L478.299 167.766L470.091 179.431L460.178 172.569L456.021 167.766L456.767 164.564L454.848 161.705L452.077 160.904L454.315 158.96L453.782 155.758L450.691 154.5L448.133 156.216L447.386 152.899L450.584 153.128L447.493 147.982L450.264 146.038L452.823 139.519L455.594 138.261L453.249 136.203L454.102 131.056L453.676 119.392L451.224 111.387L455.381 102.123L455.807 97.7777L469.239 97.0915L472.01 94.5756L474.462 96.5197L480.005 94.4612Z" fill="black"/>
<path d="M409.683 28.6586L410.611 28.3613L412.742 29.2761L413.915 26.8746L422.336 24.473L425.427 24.8161L430.118 22.6433V22.5289L431.397 28.0182L433.849 32.2495L432.143 34.4223L432.783 35.3372L434.062 41.9701H437.686L440.564 47.8024L443.869 49.5178H446.107L446.747 46.7732L455.381 43.3424L459.432 51.9194L459.538 53.063L460.924 59.0097L463.056 63.0123H463.163L466.147 63.6985L468.386 62.0974L470.944 61.8687L470.411 64.3846L472.756 63.5841L475.741 64.7277L477.66 69.7595L477.02 72.3898L477.766 75.0201L479.259 77.1929L480.431 74.2196L485.335 73.8765L487.893 75.1344L492.477 73.1903L498.34 80.0519L500.791 80.2806L498.553 83.0253L497.06 88.4002L499.832 88.6289L501.324 92.4028L497.593 96.8628L497.807 99.7218L480.005 94.4613L474.462 96.5197L472.01 94.5756L469.239 97.0915L455.808 97.7777L452.29 94.8043L456.021 82.6822L454.102 79.9376L450.904 79.4801L451.65 76.3924L447.493 70.4457L450.797 68.6159L446.747 62.5549L440.458 61.4113L441.524 54.4353L440.138 51.5763L438.326 54.0922L425.96 53.5204L421.59 48.7173L422.23 45.5152L416.367 42.5419L409.683 28.6586Z" fill="black"/>
<path d="M397.392 149.926L393.662 140.32L395.047 131.171L393.555 121.221L396.859 115.847L401.23 120.078L404.534 118.706L419.884 121.221L433.529 128.884L442.696 121.107L453.676 119.392L454.102 131.056L453.249 136.203L455.594 138.261L452.823 139.519L450.264 146.038L447.493 147.982L450.584 153.128L447.386 152.899L448.133 156.216L450.691 154.5L453.782 155.758L454.315 158.96L452.077 160.904L443.442 164.221L440.777 162.391L438.645 164.907L431.29 163.763L419.671 156.444L417.326 158.274L407.519 155.758L400.804 157.817L394.834 156.559L393.129 152.899L397.392 149.926Z" fill="black"/>
<path d="M404.854 78.794L412.423 85.4268L425.214 82.5678L422.443 89.0863L424.255 92.6315L426.92 89.0863L435.874 93.0889L436.727 89.8869L439.711 95.1474L442.27 93.2033L443.123 96.8628L452.29 94.8043L456.021 82.6822L454.102 79.9376L450.904 79.4801L451.65 76.3924L447.493 70.4457L450.797 68.6159L446.747 62.5549L440.458 61.4113L441.524 54.4353L440.138 51.5763L438.326 54.0922L425.96 53.5204L421.59 48.7173L422.23 45.5152L416.367 42.5419L409.683 28.6586L397.179 32.5926L390.357 38.768L391.316 45.1722L389.504 50.4327L390.144 58.0948L392.276 62.8979L390.464 61.2969L390.144 72.3898L392.564 74.1967L403.788 75.3632L404.854 78.794Z" fill="black"/>
<path d="M452.29 94.8043L455.808 97.7777L455.381 102.123L451.224 111.387L453.676 119.392L442.696 121.107L433.529 128.884L419.884 121.221L404.534 118.706L401.23 120.078L396.86 115.847L393.235 106.24L380.667 94.8158L383.215 92.6315L386.839 85.0837L388.865 83.8258L388.971 83.7114L390.464 85.7699L394.195 86.113L388.225 79.2514L389.504 73.419L392.596 74.2196L392.564 74.1967L403.788 75.3632L404.854 78.794L412.423 85.4268L425.214 82.5678L422.443 89.0863L424.255 92.6315L426.92 89.0863L435.874 93.0889L436.727 89.8869L439.711 95.1474L442.27 93.2033L443.123 96.8628L452.29 94.8043Z" fill="black"/>
<path d="M500.909 100.797L501.751 101.094L512.197 101.552L519.979 97.892L521.151 91.0304L525.415 86.6848L528.4 86.4561V90.8017L526.588 92.6315L525.948 98.5782L529.466 103.724L528.4 106.469L529.039 110.014L530.532 112.187L534.05 111.158L538.633 113.902L541.618 118.248L546.841 118.934L548.973 120.878L548.014 123.623L550.252 123.474L548.547 124.767L546.415 127.854L540.339 125.453L538.313 127.74L539.166 137.804L535.755 143.636L537.247 146.495L532.77 150.612V150.726L511.344 148.553L500.898 141.006L493.756 139.976L493.436 123.623L496.314 123.28L501.644 115.046L500.258 111.501L501.644 107.498L500.909 100.797Z" fill="black"/>
<path d="M471.371 213.739L467.533 212.023L467.107 202.303L470.198 201.388L473.396 195.67L476.807 200.816L486.401 202.188V198.414L496.527 189.723L503.456 188.694L506.761 189.266L507.187 196.242L509.959 198.529C511.984 199.444 514.009 200.244 515.928 201.159L518.593 199.444L522.111 200.702L521.471 204.59L524.029 210.537L529.999 213.967L530.532 225.289L530.425 228.377L524.456 231.236L524.669 236.725L520.512 236.153L515.502 240.613L508.999 241.642L506.654 243.93L503.563 242.329L490.132 244.158L484.802 231.693L480.964 227.004L478.832 229.52L476.168 220.028L471.371 213.739Z" fill="black"/>
<path d="M469.665 181.718L470.091 179.431L478.299 167.766L475.635 166.279L476.487 163.192L474.782 160.447L480.645 157.817L477.233 148.668L478.513 145.694L487.04 141.12L492.69 143.179L493.756 139.976L500.898 141.006L511.344 148.553L532.77 150.726L535.116 161.019L534.05 165.707L536.821 167.194L536.181 171.654L532.877 172.912L531.704 179.545L535.116 184.806L535.649 189.494L526.481 192.01L528.826 194.869L526.375 197.385L527.121 200.702H522.111L518.593 199.444L515.928 201.159C514.009 200.244 511.984 199.444 509.959 198.529L507.187 196.242L506.761 189.266L503.456 188.694L496.527 189.723L486.401 198.414V202.188L476.807 200.816L473.396 195.67L470.624 193.726L466.894 184.234L469.665 181.718Z" fill="black"/>
<path d="M526.481 192.01L535.648 189.494L539.273 195.441L557.288 207.334L554.729 209.965L568.267 220.829L566.455 230.664L572.318 236.039L572.531 239.584L575.409 238.326L576.795 241.185V241.299L577.008 242.9L574.556 246.56L571.465 246.217L569.333 248.961L569.013 258.453L565.602 259.597L563.364 257.538L556.328 261.998L555.049 264.857L549.932 267.03V263.828L546.735 261.998L536.928 259.711L534.476 254.222L537.461 251.477L536.395 247.932L534.476 245.416L531.385 245.073L531.704 241.757L528.933 240.613L528.4 237.525L524.669 236.725L524.456 231.236L530.425 228.377L530.532 225.289L529.999 213.967L524.029 210.537L521.471 204.59L522.111 200.702H527.121L526.374 197.385L528.826 194.869L526.481 192.01Z" fill="black"/>
<path d="M627.002 195.441L629.027 196.928L627.428 197.385L616.129 206.076L609.627 204.247L607.921 201.159L602.271 205.505L595.876 206.648L593.317 204.59L587.561 206.877L586.388 210.079L580.312 210.88L575.942 205.39L576.049 202.074L569.866 201.388L570.079 198.071L567.414 195.784L569.226 192.582L567.841 182.747L570.186 166.965L571.145 163.878L565.922 150.726L567.521 143.979L566.242 140.891L561.551 135.402L555.902 137.689L555.156 131.628L560.272 129.684L562.404 127.511H569.653L572.36 130.153L575.196 141.806L577.861 143.636L579.14 147.753L577.328 151.298L578.394 157.702L575.409 157.817L579.993 166.394L592.251 170.968L591.931 174.284L594.81 180.117L603.87 181.832L609.52 186.292L624.87 192.353L627.002 195.441Z" fill="black"/>
<path d="M550.252 123.474L551.531 123.394L553.13 125.224L555.156 131.628L555.902 137.689L561.551 135.402L566.242 140.891L567.521 143.979L565.922 150.726L571.145 163.878L570.186 166.965L567.841 182.747L569.226 192.582L567.414 195.784L570.079 198.071L569.866 201.388L567.841 204.018L564.643 203.446L557.288 207.334L539.273 195.441L535.648 189.494L535.115 184.806L531.704 179.545L532.877 172.912L536.181 171.654L536.821 167.194L534.049 165.707L535.115 161.019L532.77 150.726V150.612L537.247 146.495L535.755 143.636L539.166 137.804L538.313 127.74L540.339 125.453L546.415 127.854L548.547 124.767L550.252 123.474Z" fill="black"/>
<path d="M575.196 141.806L572.371 130.153L573.064 130.828H575.622L577.221 133.229L579.673 134.03L582.125 133.458L583.191 130.828L585.322 129.455L587.668 129.227L592.464 131.857L597.688 131.743L600.992 136.088L603.444 138.261L602.911 140.548L606.855 144.208L609.84 149.354V151.984L614.317 152.785L615.596 150.612L615.276 147.867L618.048 147.639L622.098 149.697L623.591 153.7L625.829 151.984L628.494 154.157L634.677 153.7L640.326 148.897L642.672 150.498L643.205 152.899L645.763 155.644L649.174 157.359H649.206L647.362 162.391L645.869 165.364L636.382 165.707L626.682 160.447L625.829 157.245L620.499 169.596L626.362 172.34L624.657 175.199L627.108 177.143L628.494 174.284L631.692 174.627L636.276 178.516L633.078 193.726L630.626 195.784L627.002 195.441L624.87 192.353L609.52 186.292L603.87 181.832L594.81 180.117L591.931 174.284L592.251 170.968L579.993 166.394L575.409 157.817L578.394 157.702L577.328 151.298L579.14 147.753L577.861 143.636L575.196 141.806Z" fill="black"/>
<path d="M673.478 160.904L670.493 171.654L662.179 183.662L660.047 185.377L658.554 189.151L658.874 194.755L656.316 202.989L657.062 207.106L655.463 209.393L654.184 215.683L650.815 222.807L645.869 220.715L645.55 217.512L636.489 211.108L633.184 210.88L627.641 208.364L629.027 196.928L627.002 195.441L630.626 195.784L633.078 193.726L636.276 178.516L631.692 174.628L628.494 174.284L627.108 177.143L624.657 175.199L626.362 172.34L620.499 169.596L625.829 157.245L626.682 160.447L636.382 165.707L645.869 165.364L647.362 162.391L649.206 157.359L658.661 158.045L661.219 157.359L673.478 160.904Z" fill="black"/>
<path d="M645.869 220.715L650.815 222.807L650.773 222.887V228.948L652.478 231.121L652.692 235.01L650.346 247.703L650.453 255.366L652.372 257.081L653.011 261.084L650.666 263.371L650.453 266.001L647.149 267.03L647.682 269.546L646.083 271.376H643.205L639.154 272.977L635.956 271.719L636.276 268.86L633.717 267.602L633.291 267.716L631.159 261.998L628.174 262.227L627.641 251.935L619.54 246.217L622.525 243.472V236.382L627.641 227.462L632.012 212.023L633.184 210.88L636.489 211.108L645.55 217.512L645.869 220.715Z" fill="black"/>
<path d="M554.729 209.965L557.288 207.334L564.643 203.446L567.841 204.018L569.866 201.388L576.049 202.074L575.942 205.39L580.313 210.88L586.389 210.079L587.561 206.877L593.317 204.59L595.876 206.648L602.271 205.505L607.921 201.159L609.627 204.247L616.129 206.076L627.428 197.385L629.027 196.928L627.641 208.364L633.184 210.88L632.012 212.023L627.641 227.462L622.525 236.382V243.472L619.54 246.217L618.581 246.903L609.627 239.355L604.19 241.871L598.967 237.754L592.784 239.584L585.323 234.666L576.795 241.299V241.185L575.409 238.326L572.531 239.584L572.318 236.039L566.455 230.664L568.267 220.829L554.729 209.965Z" fill="black"/>
<path d="M227.158 303.282L229.076 302.139L226.092 297.45L217.777 294.019L220.975 292.533L221.615 290.017L221.082 287.158L222.574 284.756L228.757 283.498L222.894 282.698L215.858 286.929L211.488 283.269L209.143 284.413L206.798 283.041L206.265 277.437L207.224 274.578L210.422 274.006L209.463 271.49L209.271 271.136L223.32 266.687L223.746 259.826L229.29 255.937L243.36 255.48L245.066 252.163L254.66 247.703L261.908 251.82L269.583 267.03L266.705 266.573L264.68 269.317L273.74 273.091L274.06 279.839L258.817 282.24L255.725 284.756L258.923 285.671L262.761 291.046L263.614 294.248L260.629 299.394L263.614 300.995L264.04 304.426L258.923 300.423L257.324 303.168L253.913 303.968L254.446 307.399L251.888 309.801L249.436 307.857V304.312L245.812 304.54L245.599 315.404L233.127 309.686L227.158 303.282Z" fill="black"/>
<path d="M288.451 307.857L275.339 308.772L264.04 304.426L263.614 300.995L260.629 299.394L263.614 294.248L262.761 291.046L258.923 285.671L255.725 284.756L258.817 282.24L274.06 279.839L273.74 273.091L264.68 269.317L266.705 266.573L269.583 267.03L261.908 251.82L262.334 249.305L273.527 253.307L275.766 251.134L285.04 255.251L288.237 255.709L294.527 252.621L299.963 254.565L300.603 257.653L307.745 257.424L307.958 261.427L310.09 263.714L313.394 262.227L318.937 266.001L326.825 266.115L326.079 268.86L324.267 279.496L318.085 296.993V297.107L311.049 303.854L308.597 301.224L298.364 301.453L292.395 302.367L288.451 307.857Z" fill="black"/>
<path d="M273.527 253.307L262.335 249.304L266.172 239.47L272.035 236.954L270.009 217.169L271.608 214.425L271.715 200.587L280.882 201.502H280.989L284.507 205.733L287.065 203.904L289.73 205.848L296.872 202.074H306.572L307.318 198.986L310.196 199.215L312.222 206.076L315.739 207.906V211.223V211.337L311.156 214.425L311.476 222.316L306.785 226.89L308.064 230.206L302.735 235.467L304.227 239.355L298.364 248.161L299.963 254.565L294.527 252.621L288.237 255.709L285.04 255.251L275.766 251.134L273.527 253.307Z" fill="black"/>
<path d="M333.328 269.089L326.826 266.115L318.937 266.001L313.394 262.227L310.09 263.714L307.958 261.427L307.745 257.424L300.603 257.653L299.963 254.565L298.364 248.161L304.227 239.355L302.735 235.467L308.064 230.206L306.785 226.89L311.476 222.316L311.156 214.425L315.739 211.337L318.937 211.451L330.663 204.704L333.648 206.42L335.353 216.026L343.028 221.744L346.12 220.6L349.424 224.603L352.835 225.403L355.074 229.749L354.647 231.807V231.922L352.515 234.323L354.327 236.839L354.754 243.129L348.038 255.251L344.627 256.509L343.988 260.512L335.78 265.658L332.795 265.315L333.328 269.089Z" fill="black"/>
<path d="M287.065 348.912L287.278 340.449L282.268 319.979L277.791 315.29L275.339 308.772L264.04 304.426L258.923 300.423L257.324 303.168L253.913 303.968L254.446 307.399L251.888 309.801L249.436 307.857V304.312L245.812 304.54L245.599 315.404L233.127 309.686L227.158 303.282L226.838 303.397L225.985 306.37L222.361 311.288L221.082 313.918L221.295 316.662L230.569 327.527L233.447 333.931L234.726 339.992L243.254 346.167L246.878 346.739L251.035 351.657L254.127 351.542L256.258 352.915L258.177 355.774L257.218 353.372L261.375 357.146L261.908 354.058L264.466 354.401L272.035 351.313L270.542 354.63L277.471 354.287L280.03 356.345L289.73 351.199L287.065 348.912Z" fill="black"/>
<path d="M222.467 216.026L217.244 224.145L214.153 225.403L212.554 222.316L208.823 221.286L202.214 229.863L200.295 223.002L197.097 224.031L183.346 216.598L174.925 220.028L161.643 216.266L163.839 211.566L161.174 200.93L163.839 191.438L160.002 186.063L161.174 181.146L162.453 182.747L165.864 182.29L167.037 173.484L168.636 171.654L170.981 170.968L173.006 172.569H175.671L177.91 171.425L180.255 171.769L181.854 169.71L182.813 171.997L181.214 174.971L184.412 170.854L187.504 169.939L187.397 172.569L186.118 177.601L187.93 174.056L190.701 173.484L189.529 175.771L197.204 184.691L199.549 190.867L202.747 193.154L203.6 197.385L204.346 194.869L207.544 193.726L210.102 190.638L218.736 186.864L221.615 186.635L219.483 189.494L222.574 188.236L224.493 193.268L225.878 191.095L228.543 191.324V191.221L230.249 195.784H229.929H230.249L232.914 196.127L233.66 196.356L234.086 198.3L232.061 213.167L222.467 216.026Z" fill="black"/>
<path d="M161.601 240.27L163.733 244.158L162.88 245.759L157.017 244.387L155.738 242.214L158.083 241.414L154.885 242.329L154.565 239.241V242.329L151.9 243.129L149.555 241.985L145.078 235.01L144.225 237.869L141.774 238.097L138.043 234.552L139.748 229.292L137.19 234.209L138.576 236.382L136.231 237.525L135.165 240.728L128.875 240.499L126.637 238.669L128.236 236.839L126.637 230.55L124.079 227.004L121.094 224.946L122.799 223.002L120.561 224.603L112.566 222.087L114.911 220.6L128.236 218.542L130.155 220.6L132.287 219.114L133.033 216.255L131.327 212.138L124.079 209.279L122.48 212.252L119.708 207.449L121.094 205.39L120.774 202.874L122.586 205.505L127.809 206.648L132.713 205.733L134.951 209.279L140.708 210.422L136.764 209.393L133.779 207.106L136.124 206.534L131.647 204.247L133.779 202.531L131.007 202.303L128.129 203.217L127.276 200.702L134.845 195.555L130.155 198.071L127.703 198.186L119.708 201.502L116.83 200.13L113.952 201.502L112.353 199.444L112.993 193.383L115.657 191.553L113.312 190.524L114.165 187.55L116.084 185.72L118.322 184.806L123.759 186.521L121.733 185.263L124.398 183.891L126.104 185.492L124.079 183.548L125.358 181.375L128.449 181.26L132.5 178.973L134.951 181.947L142.093 178.401L145.291 180.231L146.357 177.715L149.449 177.143L149.875 182.861L152.22 181.146L153.606 184.005L154.885 178.859L159.895 179.202L161.174 181.146L160.002 186.064L163.839 191.438L161.174 200.93L163.839 211.566L161.643 216.266L161.601 216.255V216.369L154.352 220.028L154.885 224.031L158.509 230.321L167.144 231.807L167.25 237.983L164.585 241.185L161.601 240.27Z" fill="black"/>
<path d="M272.035 236.954L266.172 239.47L262.334 249.305L261.908 251.82L254.659 247.703L245.066 252.164L243.36 255.48L229.29 255.937L223.746 259.826L222.68 253.193L225.878 252.392L222.894 250.677L225.452 248.161L226.518 244.501L223.96 242.557L225.665 239.584L224.386 236.725L218.95 233.523L218.417 230.321L222.148 229.292L218.31 229.177L217.244 224.145L222.467 216.026L232.061 213.167L234.086 198.3L233.66 196.356L232.914 196.127L230.249 195.784L228.543 191.221L228.597 190.238L228.65 189.266L229.396 189.151H231.635V189.266L233.447 194.297L234.833 196.585L234.3 198.986L235.792 196.585L233.34 190.752L234.086 187.893L236.431 186.178L238.883 185.492L241.228 186.635L239.629 189.266L242.721 192.01L250.502 191.324L255.512 202.303L258.39 203.446L265.959 197.957L271.715 200.587L271.608 214.425L270.009 217.169L272.035 236.954Z" fill="black"/>
<path d="M178.763 277.437L181.854 278.809L180.681 281.211L175.245 279.839L173.859 276.751L174.286 273.32L176.524 274.921L178.763 277.437ZM222.894 250.677L225.452 248.161L226.518 244.501L223.96 242.557L225.665 239.584L224.386 236.725L218.95 233.523L218.417 230.321L222.148 229.292L218.31 229.177L217.244 224.145L214.153 225.403L212.554 222.316L208.823 221.286L202.214 229.863L200.295 223.002L197.097 224.031L183.346 216.598L174.925 220.028L161.643 216.266L161.601 216.369L154.352 220.028L154.885 224.031L158.509 230.321L167.144 231.807L167.25 237.983L164.585 241.185L161.601 240.27L163.733 244.158L163.839 245.874L166.93 250.906L169.382 250.677L170.981 248.733L170.128 242.9L170.768 245.645L172.58 247.589L174.605 245.645L171.94 250.448L174.286 252.049L171.834 251.363L175.245 253.536L175.352 253.65L177.057 254.794L178.869 251.935L177.164 255.48L179.402 258.453L180.042 262.456L179.082 265.658L181.321 266.916L180.042 263.485L180.575 259.139L182.92 260.969L188.356 261.084L187.61 255.366L189.103 257.653L191.341 259.368L196.458 258.796L198.696 261.541L197.63 264.057L195.392 263.371L190.275 263.828L194.326 267.602L208.077 266.573L211.381 268.288L207.757 268.403L209.271 271.136L223.32 266.687L223.746 259.826L222.681 253.193L225.878 252.392L222.894 250.677Z" fill="black"/>
<path d="M314.247 433.653L312.115 435.94V435.825L305.4 428.621L299.004 427.248L300.816 423.818L298.364 421.53L300.922 419.586L299.324 416.613L301.136 413.64L298.577 411.695L298.258 408.265L292.928 404.72L295.273 402.318L291.862 395.914L300.496 392.14L302.948 394.427L305.826 394.313L308.704 381.047L311.582 379.217L311.902 375.786L318.085 372.927L321.815 373.385L322.668 372.47H322.775L332.475 375.901L335.566 374.986L334.074 372.241L336.419 370.183L340.79 374.643L344.84 373.042L346.226 370.183L351.343 370.869L351.13 376.701L356.14 380.818L355.5 384.478L352.728 385.736L348.465 394.885L345.48 395.571L341.856 399.916H341.962L335.886 406.892L333.648 412.953L325.227 419.701L324.48 426.219L320.11 432.852L314.247 433.653Z" fill="black"/>
<path d="M258.817 390.081L257.324 384.364L253.594 380.933L252.208 378.302L253.807 374.185L255.619 376.244L258.71 376.816L260.203 386.422L258.817 390.081ZM257.857 364.694L251.675 359.547L246.985 357.832L246.345 361.148L249.223 361.263L254.34 365.037L257.857 364.694ZM305.4 428.621L299.004 427.248L300.816 423.818L298.364 421.53L300.922 419.586L299.324 416.613L301.136 413.64L298.577 411.696L298.258 408.265L292.928 404.72L295.273 402.318L291.862 395.914L300.496 392.14L302.948 394.427L305.826 394.313L308.704 381.047L304.867 375.672L286.319 368.01L280.03 360.577V356.345L277.471 354.287L270.542 354.63L272.035 351.314L264.466 354.401L264.999 354.516L264.36 358.404L259.563 365.151L262.121 365.494L264.466 367.438L267.664 375.672L266.065 377.845L265.852 383.677L262.334 387.222L262.228 390.196L259.883 390.653L258.284 392.597L259.456 397.515L269.05 404.948L270.649 407.922L275.233 411.009L279.177 416.499L281.106 424.847L285.146 424.275L285.892 427.477L292.715 429.421L293.354 436.054L299.857 440.972L309.877 442.115L312.009 436.397L312.115 435.94V435.825L305.4 428.621Z" fill="black"/>
<path d="M387.586 448.634L378.951 449.549L375.22 441.543L371.809 440.743L371.596 437.312L369.144 435.597L371.276 433.538L369.464 430.107L373.302 424.847L370.21 419.472L371.916 416.384L374.581 417.757L379.591 413.182L385.667 411.695L390.89 406.435L400.164 401.861L407.626 397.972L419.565 403.919L422.016 400.946L424.894 401.861L427.453 399.116L428.732 405.52L426.92 408.265L428.199 417.299L428.945 424.161L422.336 421.873L421.697 425.876L413.595 436.74L415.514 439.256L413.062 441.429L412.742 445.432L409.438 446.69L411.037 450.578L407.626 452.751H407.519L400.377 452.522L394.728 455.61L387.586 448.634Z" fill="black"/>
<path d="M422.762 392.826L427.453 399.116L424.894 401.861L422.016 400.946L419.565 403.919L407.626 397.972L400.164 401.861L399.524 395.113L394.514 391.683L387.692 391.111L387.586 387.909L384.494 386.193L385.454 382.305L383.535 376.358L376.5 365.151L379.697 359.09L378.418 356.117L381.403 352.8L393.662 351.542L395.687 348.683L409.758 351.771L412.636 350.856L417.859 351.085L419.032 355.545C421.697 357.375 424.255 359.204 426.92 361.034L430.757 370.64L430.224 375.329L432.676 382.991L422.762 392.826Z" fill="black"/>
<path d="M327.998 473.793L325.013 466.474L323.947 464.987L324.907 461.671L322.348 458.697L320.216 462.357L309.77 459.727L311.902 457.439L312.115 450.921L315.1 444.631L313.821 441.429L309.877 442.115L312.009 436.397L312.115 435.94L314.247 433.653L320.11 432.852L324.48 426.219L325.227 419.701L333.648 412.953L335.886 406.892L341.962 399.916L348.571 403.347L348.465 408.722L358.591 407.464L366.266 413.868L364.134 416.956L370.21 419.472L373.302 424.847L369.464 430.107L371.276 433.538L369.144 435.597L371.596 437.312L371.809 440.743L375.22 441.543L378.951 449.549L378.205 455.267L376.713 461.328L371.916 464.987L372.555 469.104L366.16 472.992L361.15 480.426L356.673 475.623L350.916 478.71L349.317 471.849L342.815 472.992L340.47 470.934L337.485 473.221L327.998 473.793Z" fill="black"/>
<path d="M259.989 480.426L253.807 483.399V478.139L256.152 474.479L256.685 471.849L258.71 469.905L260.629 471.506L263.933 471.277L262.761 466.016L259.03 462.128L256.045 466.703L254.766 471.048L261.375 413.868L262.334 410.666L265.852 406.778L267.345 412.153L276.938 422.445L279.923 431.137L281.735 427.592L281.106 424.847L285.146 424.275L285.892 427.477L292.715 429.421L293.354 436.054L299.857 440.972L309.877 442.115L313.821 441.429L315.1 444.631L312.115 450.921L311.902 457.439L309.77 459.727L320.216 462.357L322.348 458.697L324.907 461.671L323.947 464.987L325.013 466.474L321.709 466.36L320.43 469.219L317.552 468.189L316.379 471.963L319.47 473.564L310.41 483.399L309.77 493.577L306.572 496.207L308.171 499.066L303.374 503.641L301.136 500.553L299.43 504.67H292.608L291.968 499.295L280.243 490.489L280.669 487.287L262.334 488.088L263.933 481.912L259.989 480.426Z" fill="black"/>
<path d="M236.986 550.311L238.137 548.584L242.294 540.465L251.675 497.237L253.807 483.857V483.399L259.989 480.426L263.933 481.912L262.334 488.088L280.669 487.287L280.243 490.489L291.968 499.295L292.608 504.67H299.43L301.136 500.553L303.374 503.641L303.801 508.901L316.272 512.218L312.435 518.165L313.181 521.138L312.755 524.454L310.09 525.941L309.45 522.51L299.43 525.598L299.963 532.917L295.486 545.611L297.192 548.699L288.024 550.414L284.507 549.156L279.39 551.329L277.045 549.042L274.593 550.757L271.928 548.127L261.482 550.414L259.776 552.93L257.111 551.329L254.233 552.816L252.954 549.614L241.228 552.472L236.986 550.311Z" fill="black"/>
<path d="M313.181 521.024V521.138L312.435 518.165L316.272 512.218L303.801 508.901L303.374 503.641L308.171 499.066L306.572 496.207L309.77 493.577L310.41 483.399L319.47 473.564L316.379 471.963L317.552 468.189L320.43 469.218L321.709 466.359L325.013 466.474L327.998 473.793L337.485 473.221L340.47 470.934L342.815 472.992L349.317 471.849L350.916 478.71L356.673 475.623L361.15 480.426L357.525 483.971L360.403 494.378L352.409 496.665V499.981L354.967 501.582L350.277 507.872L351.663 510.96L348.678 510.731L344.84 516.106L341.962 517.593L332.795 516.449L327.465 519.766L318.618 518.965L317.125 521.824L313.181 521.024Z" fill="black"/>
<path d="M295.166 587.124L298.791 586.209L298.364 582.892L306.892 572.257L306.039 568.712L308.917 567.111L308.384 558.877H305.293L306.892 555.675L304.227 549.042L297.192 548.699L288.024 550.414L284.507 549.156L279.39 551.329L277.045 549.042L274.593 550.757L271.928 548.127L261.482 550.414L259.776 552.93L257.111 551.329L254.233 552.816L252.954 549.613L241.228 552.472L236.986 550.311L233.234 555.903L230.355 558.076L225.559 559.105L227.584 564.252L232.381 564.023L232.594 566.539L235.152 567.682L237.497 565.281L240.056 566.767L242.721 566.882L244.213 570.084L241.548 577.746L239.31 580.262L240.695 582.778L245.279 582.663L246.025 578.775L248.477 578.661L247.091 581.406L253.38 584.036L254.979 586.094H257.644L264.147 590.44L270.329 590.897L272.781 589.754L274.273 592.155L274.593 595.357L277.471 596.844L281.629 601.419L283.867 602.448L285.04 600.046L287.918 602.448L291.755 601.19L291.958 601.007L293.461 590.326L295.166 587.124Z" fill="black"/>
<path d="M311.582 379.217L308.704 381.047L304.867 375.672L286.319 368.01L280.03 360.577V356.345L289.73 351.199L287.065 348.912L287.278 340.449L282.268 319.979L277.791 315.29L275.339 308.772L288.451 307.857L292.395 302.367L298.364 301.453L308.597 301.224L311.049 303.854L314.673 314.147L313.821 317.577L316.699 318.95L311.902 335.074L314.78 334.045L316.379 337.476L312.755 343.766L313.288 350.399L315.526 352.686L315.42 355.888L322.242 356.117L318.831 365.837L323.628 369.268L322.775 372.47H322.668L321.815 373.385L318.085 372.928L311.902 375.787L311.582 379.217Z" fill="black"/>
<path d="M351.343 366.866V370.869L346.226 370.183L344.84 373.042L340.79 374.643L336.419 370.183L334.074 372.241L335.566 374.986L332.475 375.901L322.775 372.47L323.628 369.268L318.831 365.837L322.242 356.117L315.42 355.888L315.526 352.686L313.288 350.399L312.755 343.766L316.379 337.476L314.78 334.045L311.902 335.074L316.699 318.95L313.821 317.577L314.674 314.147L311.049 303.854L318.085 297.107L323.947 300.766L324.267 304.426L327.359 304.083L328.744 311.059L331.729 312.66L342.389 312.202L340.896 308.886L346.546 312.317L346.866 315.862L354.434 327.298L356.673 330.729L355.82 337.362L360.723 342.393H363.815L366.586 348.569L369.251 350.056L367.652 353.258L366.799 352.915L365.414 355.659L361.896 354.63L360.51 358.061L354.541 361.148L351.343 366.866Z" fill="black"/>
<path d="M371.916 416.384L370.21 419.472L364.134 416.956L366.266 413.868L358.591 407.464L348.465 408.722L348.571 403.347L341.962 399.916H341.856L345.48 395.571L348.465 394.885L352.728 385.736L355.5 384.478L356.14 380.818L351.129 376.701L351.343 370.869V366.866L354.541 361.148L360.51 358.061L361.896 354.63L365.413 355.659L366.799 352.915L367.652 353.258L370.423 354.516L376.606 353.258L378.418 356.117L379.697 359.09L376.5 365.151L383.535 376.358L385.454 382.305L384.494 386.193L387.586 387.909L387.692 391.111L394.514 391.683L399.524 395.113L400.164 401.861L390.89 406.435L385.667 411.695L379.591 413.182L374.581 417.757L371.916 416.384Z" fill="black"/>
<path d="M394.216 621.649L395.047 620.631L392.276 619.373L390.144 616.971L386.2 616.857L384.388 614.913L381.403 615.37L380.017 617.772L377.459 616.857L374.474 610.11L363.815 609.424L362.429 606.222L348.358 601.762L347.825 600.161L351.876 594.214L354.86 593.07V586.323L359.018 581.749L362.002 580.491L368.611 585.179L368.185 578.775L373.941 576.945L370.743 571.456L373.728 570.198L377.352 576.488L380.337 575.916L380.977 572.714L387.053 575.23L389.185 572.6L391.53 578.89L400.804 583.35L403.149 589.296L403.362 592.842L401.017 595.472L403.575 598.331L402.296 601.762L398.885 602.448L399.738 608.966L403.362 610.682L406.88 609.309L411.996 615.714L404.108 615.942L402.722 618.916L394.216 621.649Z" fill="black"/>
<path d="M463.77 576.797L462.203 578.547L456.66 589.182L455.701 593.185L455.861 604.129L445.787 597.759L437.046 603.934L422.549 602.791L419.671 604.392L421.164 611.253L411.996 615.713L406.88 609.309L403.362 610.682L399.738 608.966L398.885 602.448L402.296 601.762L403.575 598.331L401.017 595.472L403.362 592.842L403.149 589.296L400.804 583.35L391.53 578.89L389.185 572.6L398.139 561.164L399.631 564.252L405.174 562.193L405.707 561.278L407.626 563.908L414.341 564.938L415.514 561.164L418.499 560.592L431.29 562.193L430.757 565.395L434.488 571.113L437.153 569.283L438.645 572.6L441.95 571.685L446.001 565.624L447.067 568.94L461.777 574.315L463.589 576.602L463.77 576.797Z" fill="black"/>
<path d="M459.219 503.984L469.239 509.13L467.107 513.59L464.122 514.848L473.076 519.537L468.493 525.598L468.812 527.313L464.868 528.457L461.67 534.518L454.955 533.031L454.848 542.981L448.772 542.866L447.386 539.664L435.554 538.177L431.077 532.46L426.493 519.308L421.377 514.391L410.397 507.758L403.895 510.96L399.311 506.843L401.763 504.098L398.458 501.011L398.885 497.58L398.032 487.173L406.133 481.455L412.423 479.854L414.235 478.139H414.341L419.778 474.479L426.6 476.194L430.651 470.705L433.849 460.298L438.859 455.495L444.402 460.07L445.787 464.873L448.346 466.703L447.813 470.133L450.584 475.966V476.08L455.061 481.226L458.153 491.29L457.62 501.239L459.219 503.984Z" fill="black"/>
<path d="M511.664 557.161L508.679 556.475L506.654 554.645L505.482 550.757H505.375L508.893 545.725L507.294 542.295L500.791 534.632L497.593 534.404L497.38 530.973L490.132 529.372L491.091 526.284L489.066 523.311L484.908 523.997L480.431 528.457L480.325 531.659L474.675 528.8L472.33 530.744L471.904 527.428L468.812 527.313L468.492 525.598L473.076 519.537L464.122 514.848L467.107 513.59L469.239 509.13L477.553 513.018L481.71 512.447L481.817 508.673L491.091 511.189L497.807 509.13L496.314 505.699L497.593 502.383L493.436 493.577L497.274 490.718L498.446 488.317L501.324 495.064L509.639 500.782L517.207 495.864L517.314 499.41L519.979 496.779H522.963L529.359 500.782L532.131 505.814L532.344 512.103L539.06 519.423L534.263 525.141L530.105 529.829L528.08 541.951L524.562 540.922L520.085 546.411L521.151 549.499L514.969 551.558L511.664 557.161Z" fill="black"/>
<path d="M348.358 601.762L342.495 600.046L341.216 602.791L341.429 611.482L332.049 610.682L330.237 611.025L329.597 603.02L335.46 599.36L338.231 593.299L337.379 590.211L334.074 590.554L334.714 586.552L329.81 581.977L337.379 569.169L340.683 567.911L344.414 561.85L356.566 564.709L357.312 558.076L364.241 551.1L354.541 535.89L365.094 534.861L366.906 537.491L373.088 534.632L370.743 532.002L383.215 527.085L384.708 534.289L387.479 535.662L387.692 538.864L390.144 541.265L389.398 547.441L404.641 558.076L405.707 561.278L405.174 562.193L399.631 564.252L398.139 561.164L389.185 572.6L387.053 575.23L380.977 572.714L380.337 575.916L377.352 576.488L373.728 570.198L370.743 571.456L373.941 576.946L368.185 578.775L368.611 585.179L362.002 580.491L359.018 581.749L354.86 586.323V593.07L351.876 594.214L347.825 600.161L348.358 601.762Z" fill="black"/>
<path d="M352.409 527.999L354.541 535.89L364.241 551.1L357.312 558.076L356.566 564.709L344.414 561.85L340.683 567.911L337.379 569.169L324.161 566.653L322.668 563.222L316.805 563.908L314.034 553.959L310.516 552.472L308.384 548.47L304.227 549.042L297.192 548.699L295.486 545.611L299.963 532.917L299.43 525.598L309.45 522.51L310.09 525.941L312.755 524.454L313.181 521.138V521.024L317.125 521.824L318.618 518.965L327.465 519.766L332.795 516.449L341.962 517.593L344.84 516.106L350.49 518.05L346.972 523.311L352.409 527.999Z" fill="black"/>
<path d="M505.375 550.757L502.817 550.643L496.527 553.616L492.69 557.276L485.015 562.536L480.431 567.339L482.67 563.337L478.086 570.884H470.838L464.975 575.459L463.77 576.797L463.589 576.602L461.777 574.315L447.067 568.94L446.001 565.624L441.95 571.685L438.645 572.6L437.153 569.283L434.488 571.113L430.757 565.395L431.29 562.193L434.915 559.906L435.767 556.475L435.021 545.382L441.524 547.898C443.975 546.183 446.427 544.582 448.772 542.866L454.848 542.981L454.955 533.031L461.67 534.518L464.868 528.457L468.812 527.313L471.904 527.428L472.33 530.744L474.675 528.8L480.325 531.659L480.431 528.457L484.908 523.997L489.066 523.311L491.091 526.284L490.132 529.372L497.38 530.973L497.593 534.404L500.791 534.632L507.294 542.295L508.893 545.725L505.375 550.757Z" fill="black"/>
<path d="M410.824 472.421L414.341 478.139H414.235L412.423 479.854L406.133 481.455L398.032 487.173L398.885 497.58L392.276 498.495L384.281 504.784L381.51 502.154L372.236 505.013L371.703 500.439L369.144 502.154L366.266 501.011L361.469 496.436L363.708 493.806L360.403 494.378L357.525 483.971L361.15 480.426L366.16 472.992L372.555 469.104L371.916 464.987L376.713 461.328L378.205 455.267L378.951 449.549L387.586 448.634L394.728 455.61L400.377 452.522L407.519 452.751L408.585 458.926L412.636 465.788L410.824 472.421Z" fill="black"/>
<path d="M493.969 478.825L498.446 488.317L497.274 490.718L493.436 493.577L497.593 502.383L496.314 505.699L497.807 509.13L491.091 511.189L481.817 508.673L481.71 512.447L477.553 513.018L469.239 509.13L459.219 503.984L457.62 501.239L458.153 491.29L455.061 481.226L450.584 476.08V475.966L457.939 457.783L459.752 460.413L467 453.894L468.066 452.751L470.518 454.695L472.117 461.213L478.939 462.586L479.046 459.384L482.137 459.612L491.731 468.418L493.969 478.825Z" fill="black"/>
<path d="M335.46 599.36L329.597 603.02L330.237 611.025L329.49 611.253L327.039 609.424L324.48 611.482L321.815 610.91L319.79 608.966L315.633 608.623L308.278 611.025L305.933 609.996L303.694 608.051L302.521 605.192L294.207 598.903L291.958 601.007L293.461 590.326L295.166 587.124L298.791 586.209L298.364 582.892L306.892 572.257L306.039 568.712L308.917 567.111L308.384 558.877H305.293L306.892 555.675L304.227 549.042L308.384 548.47L310.516 552.472L314.034 553.959L316.805 563.908L322.668 563.222L324.161 566.653L337.379 569.169L329.81 581.977L334.714 586.552L334.074 590.554L337.379 590.211L338.231 593.299L335.46 599.36Z" fill="black"/>
<path d="M455.861 604.129L456.127 622.003L460.285 625.777L462.31 630.123H459.858L451.224 627.035L443.869 631.495L440.671 631.266L438.112 632.524L437.473 635.269L435.234 636.641L432.676 635.841L429.585 636.984L425.321 633.439L417.859 630.123L415.194 631.724H411.996L410.93 634.125L406.027 636.413L404.001 634.469L402.189 628.979L394.195 626.692L392.063 624.291L394.216 621.649L402.722 618.916L404.108 615.942L411.996 615.714L421.164 611.253L419.671 604.392L422.549 602.791L437.046 603.934L445.787 597.759L455.861 604.129Z" fill="black"/>
<path d="M447.386 539.664L448.772 542.866C446.427 544.582 443.975 546.183 441.524 547.898L435.021 545.382L435.767 556.475L434.915 559.906L431.29 562.193L418.499 560.592L415.514 561.164L414.341 564.938L407.626 563.909L405.707 561.278L404.641 558.076L389.398 547.441L390.144 541.265L387.692 538.864L387.479 535.662L384.707 534.289L383.215 527.085L383.748 523.883L388.865 520.223L389.931 517.135L388.012 514.619L391.21 513.361L394.088 514.619L403.895 510.96L410.397 507.758L421.377 514.391L426.493 519.308L431.077 532.46L435.554 538.178L447.386 539.664Z" fill="black"/>
<path d="M383.748 523.883L383.215 527.085L370.743 532.002L373.088 534.632L366.906 537.491L365.094 534.861L354.541 535.89L352.409 528L346.972 523.311L350.49 518.05L344.84 516.106L348.678 510.731L351.663 510.96L350.277 507.872L354.967 501.582L352.409 499.981V496.665L360.403 494.378L363.708 493.806L361.469 496.436L366.266 501.011L369.144 502.154L371.703 500.439L372.236 505.013L381.51 502.154L384.281 504.784L392.276 498.495L398.885 497.58L398.458 501.011L401.763 504.098L399.311 506.843L403.895 510.96L394.088 514.619L391.21 513.361L388.012 514.619L389.931 517.135L388.865 520.223L383.748 523.883Z" fill="black"/>
<path d="M577.754 396.829L571.678 404.491L559.739 387.108L556.755 387.909L553.557 393.741L547.161 391.454L540.339 392.026L536.395 385.507L533.41 386.079L530.105 375.558L531.704 366.409L537.994 342.508L544.283 344.223L550.039 342.737L555.156 346.51L559.739 355.316H562.831L562.937 358.747L566.028 358.633L570.292 353.601L573.917 355.43L574.343 358.633L578.394 358.404L584.256 354.744L589.906 346.51L594.703 349.598L592.784 354.973L593.104 357.832L588.414 359.547L586.388 361.835L586.602 365.037L587.092 365.254L582.444 370.64H579.353L580.206 381.276L577.754 396.829Z" fill="black"/>
<path d="M472.33 334.274L478.619 327.412L485.761 342.851L494.182 346.167L495.888 348.912L495.355 355.202L491.411 360.462L487.254 361.949L486.721 365.38L488.32 379.56L482.457 385.05L478.726 380.132L471.904 379.675L470.411 376.015L456.447 375.443L454.742 372.584L451.224 373.156L446.534 368.01L447.813 364.808L445.361 362.864L433.422 372.013L430.757 370.64L426.92 361.034C424.255 359.204 421.697 357.375 419.032 355.545L417.859 351.085V350.97L421.59 344.223L430.864 343.08L432.676 340.335L430.864 334.274L433.316 332.101L442.27 328.785L447.386 324.553H451.65H451.757L457.833 331.758L464.655 331.987L467.64 330.043L472.33 334.274Z" fill="black"/>
<path d="M529.253 496.551L529.359 500.782L522.963 496.779H519.979L517.314 499.41L517.207 495.864L509.639 500.782L501.324 495.064L498.446 488.317L493.969 478.825L491.731 468.418L498.873 461.099L505.162 458.926L508.786 452.179L512.41 451.721L511.664 448.519L514.436 445.889L516.035 439.942L518.806 441.315V437.77L519.766 433.081L523.496 432.166L526.907 426.562L532.237 423.475L534.369 428.278L534.902 440.057L538.953 452.979L537.354 460.07L533.623 465.216L534.689 473.335L531.491 480.083L529.253 496.551Z" fill="black"/>
<path d="M464.335 443.602L468.066 452.751L467 453.894L459.752 460.413L457.939 457.783L450.584 475.966L447.813 470.133L448.346 466.703L445.787 464.873L444.402 460.07L438.859 455.495L433.849 460.298L430.651 470.705L426.6 476.194L419.778 474.479L414.341 478.139L410.824 472.421L412.636 465.788L408.585 458.926L407.519 452.751H407.626L411.037 450.578L409.438 446.69L412.742 445.432L413.062 441.429L415.514 439.256L413.595 436.74L421.697 425.876L422.336 421.874L428.945 424.161L428.199 417.299L436.194 421.302L437.793 424.161L444.935 424.504L451.863 430.679L455.808 425.99V430.451L461.67 432.166L465.188 442.115L467.96 443.373L464.335 443.602Z" fill="black"/>
<path d="M570.399 462.471L567.201 463.043L566.348 443.03L563.15 444.974L554.409 442.801L551.531 443.945L552.704 436.74L549.186 427.82L543.963 424.733L534.369 428.278L534.902 440.057L538.953 452.979L537.354 460.07L533.623 465.216L534.689 473.336L531.491 480.083L529.253 496.551L535.542 497.351L539.273 502.154L548.547 497.694L551.105 499.295L553.77 496.779L554.303 503.412L564.216 504.441L564.323 507.643L569.866 510.274L574.45 504.784L576.901 504.67L577.967 504.441L578.181 499.066L567.521 492.548L565.922 489.575L569.333 483.742L573.81 485.343L576.475 482.484L573.277 479.854L575.942 472.192L582.125 471.849L582.444 467.961L576.155 467.046L570.399 462.471Z" fill="black"/>
<path d="M547.481 399.573L547.161 391.454L553.557 393.741L556.755 387.909L559.739 387.108L571.678 404.491L578.607 416.499L585.216 416.727L585.536 413.525L595.556 415.927L598.434 423.132L595.982 429.421L597.048 435.597L602.591 437.312L600.886 441.658L602.804 446.461L607.495 450.006L607.068 456.639L603.764 455.381L590.333 459.841L589.373 463.043L583.51 464.415L582.444 467.961L576.155 467.046L570.399 462.471L567.201 463.043L566.348 443.03L563.15 444.974L554.409 442.801L551.531 443.945L552.704 436.74L549.186 427.82L543.963 424.733L534.369 428.278L532.237 423.475V418.443L532.024 417.185H532.131L536.821 412.725L534.796 409.866L537.461 407.007L544.816 405.291L547.481 399.573Z" fill="black"/>
<path d="M532.237 418.443V423.475L526.907 426.562L523.496 432.166L519.766 433.081L517.42 430.336L514.649 431.48L513.903 425.19L507.507 422.674L500.898 426.105L497.913 426.562L495.461 424.275L492.477 425.19L495.675 417.07L492.797 408.493L487.893 404.148L482.883 395.342L485.122 388.137L482.457 385.05L488.319 379.56L486.721 365.38L487.254 361.949L491.411 360.462V363.893L496.954 367.667L505.482 365.952L507.72 368.353L513.796 364.007L513.807 363.904L516.035 367.324L510.811 371.326L509.106 381.161L514.649 388.824L512.837 395.571L515.288 397.401L513.903 400.26L515.075 403.69L519.979 408.379L526.268 410.781L527.227 414.211L532.131 417.185H532.024L532.237 418.443Z" fill="black"/>
<path d="M517.42 430.336L519.766 433.081L518.806 437.77V441.315L516.035 439.942L514.436 445.889L511.664 448.519L512.41 451.721L508.786 452.179L505.162 458.926L498.873 461.099L491.731 468.418L482.137 459.612L479.046 459.384L478.939 462.586L472.117 461.213L470.518 454.695L468.066 452.751L464.335 443.602L467.96 443.373L465.188 442.115L461.67 432.166L455.807 430.451V425.991V425.876L466.041 422.217L475.102 422.331L480.645 425.991L492.477 425.19L495.461 424.275L497.913 426.562L500.898 426.105L507.507 422.674L513.903 425.19L514.649 431.48L517.42 430.336Z" fill="black"/>
<path d="M478.726 380.132L482.457 385.05L485.122 388.137L482.883 395.342L487.893 404.148L492.797 408.493L495.675 417.07L492.477 425.19L480.645 425.99L475.102 422.331L466.041 422.217L455.807 425.876V425.99L451.863 430.679L444.935 424.504L437.793 424.161L436.194 421.302L428.199 417.299L426.92 408.265L428.732 405.52L427.453 399.116L422.763 392.826L432.676 382.991L430.224 375.329L430.757 370.64L433.422 372.013L445.361 362.864L447.813 364.808L446.534 368.01L451.224 373.156L454.742 372.584L456.447 375.443L470.411 376.015L471.904 379.675L478.726 380.132Z" fill="black"/>
<path d="M525.628 357.603L531.704 366.409L530.105 375.558L533.41 386.079L536.395 385.507L540.339 392.026L547.161 391.454L547.481 399.573L544.816 405.291L537.461 407.007L534.796 409.866L536.821 412.725L532.131 417.185L527.227 414.211L526.268 410.781L519.979 408.379L515.075 403.69L513.903 400.26L515.288 397.401L512.837 395.571L514.649 388.824L509.106 381.161L510.811 371.326L516.035 367.324L513.807 363.905L514.116 360.577L516.568 358.404L518.913 360.348L521.258 358.518L523.923 360.234L525.628 357.603Z" fill="black"/>
<path d="M643.524 413.983L642.458 425.762L639.154 427.363L636.809 428.163L632.012 432.052L630.413 434.796L627.748 433.195L622.312 434.682L620.18 436.74V436.855L612.931 439.027L610.799 441.315L602.591 437.312L597.048 435.597L595.982 429.421L598.434 423.131L595.556 415.927L585.536 413.525L585.216 416.727L578.607 416.499L571.678 404.491L577.754 396.829L580.206 381.276L583.084 388.938L585.962 389.967L587.348 392.826L590.546 394.77L593.317 392.94L596.728 393.855L601.632 397.972L611.652 382.076L614.21 383.906L613.571 387.337L616.022 389.395L622.631 392.026L624.976 390.31L625.637 389.441L627.641 394.77L630.519 396.028L632.118 398.201L635.103 398.658L634.357 402.089L635.743 408.036L641.179 412.61L643.524 413.983Z" fill="black"/>
<path d="M583.084 388.938L580.206 381.276L579.353 370.64H582.444L587.092 365.254L589.48 366.295L591.931 365.151L594.383 365.265L598.008 361.263L600.246 360.119L601.312 357.489L598.327 356.002L600.246 350.17L602.804 349.255L605.256 350.399L609.094 347.082L619.22 345.596L622.631 346.282L622.098 349.369L626.575 354.058L624.337 361.377L623.697 363.093L628.601 365.037L628.494 370.526L630.626 368.925L635.53 376.473L634.144 382.191L631.479 384.135L626.256 385.164L625.616 389.395L625.637 389.441L624.976 390.31L622.631 392.026L616.022 389.395L613.571 387.337L614.21 383.906L611.652 382.076L601.632 397.972L596.728 393.855L593.317 392.94L590.546 394.77L587.348 392.826L585.962 389.967L583.084 388.938Z" fill="black"/>
<path d="M635.849 468.761L636.457 468.189L636.063 473.335L633.717 475.051L633.078 478.367L636.809 482.942L634.89 488.431L635.092 488.671L627.855 497.58L625.723 503.641L630.306 513.361L637.768 522.167L632.225 521.481L626.682 525.827L627.961 528.8L624.763 530.401L614.317 530.858L613.038 534.861L606.748 530.744L595.982 540.465L591.718 534.975L588.84 537.034L583.191 536.805L576.688 529.944L573.064 528.686L574.876 525.827L570.932 519.88L572.211 516.449L569.866 510.274L574.45 504.784L576.901 504.67L577.967 504.441L584.256 502.84L588.307 503.984L584.683 498.38L588.84 499.638L590.333 489.803L595.982 485.229L599.5 484.428L603.231 489.575L603.977 485.229L608.028 480.426L619.86 484.2L629.454 472.535L635.849 468.761Z" fill="black"/>
<path d="M636.489 467.732L636.457 468.189L635.849 468.761L629.454 472.535L619.86 484.2L608.028 480.426L603.977 485.229L603.231 489.575L599.5 484.428L595.982 485.229L590.333 489.803L588.84 499.638L584.683 498.38L588.307 503.984L584.257 502.84L577.967 504.441L578.181 499.066L567.521 492.548L565.922 489.575L569.333 483.742L573.81 485.343L576.475 482.484L573.277 479.854L575.942 472.192L582.125 471.849L582.444 467.961L583.51 464.415L589.373 463.043L590.333 459.841L603.764 455.381L607.068 456.639L607.495 450.006L602.804 446.461L600.886 441.658L602.591 437.312L610.799 441.315L612.931 439.028L620.18 436.855L622.098 442.001L624.657 442.687L625.829 444.974L626.256 448.405L627.535 450.921L630.733 453.551L636.809 454.123L639.154 455.61L638.408 458.011L641.819 463.386L638.621 465.102L636.489 467.732Z" fill="black"/>
<path d="M645.23 545.611L641.819 545.497L640.433 547.555L640.326 550.071L639.879 550.952L637.555 546.411L638.408 543.095L632.438 540.122L630.626 533.718L624.763 530.401L627.961 528.8L626.682 525.827L632.225 521.481L637.768 522.167L630.306 513.361L625.723 503.641L627.855 497.58L635.092 488.671L642.458 497.58L649.813 499.41L654.291 502.612L656.955 502.154L658.874 503.755L669.854 501.011L672.732 498.952L672.412 501.925L674.011 504.441L674.331 508.101L672.625 510.274L672.412 512.904L669.534 514.734L666.016 520.452L665.483 522.282L666.656 525.369L665.483 528.457L661.752 531.773L659.301 532.345L658.341 535.09L655.143 534.061L653.544 536.462L651.093 537.034L649.174 539.779L649.281 542.981L646.722 543.667L645.23 545.611Z" fill="black"/>
<path d="M580.952 572.028L583.617 569.741L581.272 562.536L582.444 559.563L585.323 558.991L579.46 548.584L581.592 542.523L585.109 541.608L583.084 537.263L582.977 537.148L575.942 542.066L572.531 542.294L559.739 536.805L556.008 537.606L551.212 534.975L545.349 528.457L534.263 525.141L530.105 529.829L528.08 541.951L524.562 540.922L520.085 546.411L521.151 549.499L514.969 551.558L511.664 557.161L511.877 557.276H525.948L528.293 558.305L529.359 560.821L527.654 562.536L529.999 564.137L537.887 564.252L541.298 565.738L543.217 563.794L541.618 560.592L542.044 557.847L547.268 558.991L550.465 565.052L561.125 564.137L563.897 562.879L565.815 565.166L565.602 568.025L566.668 570.313L565.389 572.829H575.196L576.582 575.116L578.927 574.201L580.739 574.43L580.952 572.028Z" fill="black"/>
<path d="M639.879 550.951L638.408 553.845L631.159 555.789L630.413 558.648L624.55 565.166L629.88 565.967L627.748 571.456L623.484 571.685L618.367 574.544L614.637 575.802L614.743 578.89L609.52 577.174L606.642 577.746L604.936 579.576L604.51 582.206L602.165 584.036L603.657 581.977L601.099 580.033L598.754 580.834L597.048 579.004L593.744 579.118L594.703 581.634L592.251 581.177L590.652 583.121L587.454 581.863L588.094 579.233L581.272 574.544L580.739 574.43L580.952 572.028L583.617 569.741L581.272 562.536L582.444 559.563L585.322 558.991L579.46 548.584L581.592 542.523L585.109 541.608L583.084 537.263L583.191 536.805L588.84 537.034L591.718 534.975L595.982 540.465L606.748 530.744L613.038 534.861L614.317 530.858L624.763 530.401L630.626 533.717L632.438 540.122L638.408 543.095L637.555 546.411L639.879 550.951Z" fill="black"/>
<path d="M576.688 529.944L583.191 536.805L583.084 537.263L582.977 537.148L575.942 542.066L572.531 542.294L559.739 536.805L556.008 537.606L551.212 534.975L545.349 528.457L534.263 525.141L539.06 519.423L532.344 512.103L532.131 505.814L529.359 500.782L529.253 496.551L535.542 497.351L539.273 502.154L548.547 497.694L551.105 499.295L553.77 496.779L554.303 503.412L564.216 504.441L564.323 507.643L569.866 510.274L572.211 516.449L570.932 519.88L574.876 525.827L573.064 528.686L576.688 529.944Z" fill="black"/>
<path d="M682.752 633.782L686.163 631.838L686.909 641.445L686.749 642.062L684.777 647.62L681.899 649.793L685.417 650.25L679.234 667.061L675.93 665.689L674.651 662.487L662.712 658.599L657.595 653.567L657.808 650.136L663.031 646.362L652.905 644.189L655.783 636.184L654.824 629.551L647.042 632.524L650.24 622.918L653.011 621.088L644.59 616.057L643.418 609.767L649.067 605.421L645.017 600.618L642.245 601.762L642.778 598.674L657.275 601.075L658.554 605.078L664.95 608.966L671.346 615.714L671.879 619.373L674.757 620.631L678.701 633.211L682.752 633.782Z" fill="black"/>
<path d="M686.163 630.695V631.838L682.752 633.782L678.701 633.211L674.757 620.631L671.879 619.373L671.346 615.714L664.95 608.966L658.554 605.078L657.275 601.075L642.778 598.674V598.445L646.935 592.727L646.616 588.839L648.961 585.637L651.945 585.294L652.905 581.977L664.311 577.174L668.042 571.571L677.209 573.057L676.676 553.159L679.234 550.871L682.325 552.129L682.517 553.147L684.138 562.536L683.605 574.658L687.868 581.062L691.919 610.796L686.163 624.405V630.695V630.695Z" fill="black"/>
</g>
<defs>
<clipPath id="clip0">
<rect width="711" height="661" fill="white"/>
</clipPath>
</defs>
</svg>
